HIERARCHY
ROOT Hips
{
	OFFSET 0.00000 0.00000 0.00000
	CHANNELS 6 Xposition Yposition Zposition Zrotation Yrotation Xrotation 
	JOINT LHipJoint
	{
		OFFSET 0 0 0
		CHANNELS 3 Zrotation Yrotation Xrotation
		JOINT LeftHip
		{
			OFFSET 1.28366 -1.58472 0.87544
			CHANNELS 3 Zrotation Yrotation Xrotation
			JOINT LeftKnee
			{
				OFFSET 2.18587 -6.00562 0.00000
				CHANNELS 3 Zrotation Yrotation Xrotation
				JOINT LeftAnkle
				{
					OFFSET 2.39085 -6.56880 0.00000
					CHANNELS 3 Zrotation Yrotation Xrotation
					JOINT LeftToe
					{
						OFFSET 0.12003 -0.32979 2.03101
						CHANNELS 3 Zrotation Yrotation Xrotation
						End Site
						{
							OFFSET 0.00000 -0.00000 1.04074
						}
					}
				}
			}
		}
	}
	JOINT RHipJoint
	{
		OFFSET 0 0 0
		CHANNELS 3 Zrotation Yrotation Xrotation
		JOINT RightHip
		{
			OFFSET -1.21795 -1.58472 0.87544
			CHANNELS 3 Zrotation Yrotation Xrotation
			JOINT RightKnee
			{
				OFFSET -2.22714 -6.11902 0.00000
				CHANNELS 3 Zrotation Yrotation Xrotation
				JOINT RightAnkle
				{
					OFFSET -2.40306 -6.60235 0.00000
					CHANNELS 3 Zrotation Yrotation Xrotation
					JOINT RightToe
					{
						OFFSET -0.15519 -0.42640 1.91430
						CHANNELS 3 Zrotation Yrotation Xrotation
						End Site
						{
							OFFSET -0.00000 -0.00000 0.99082
						}
					}
				}
			}
		}
	}
	JOINT lowerback
	{
		OFFSET 0 0 0
		CHANNELS 3 Zrotation Yrotation Xrotation
		JOINT Chest
		{
			OFFSET 0.01180 1.76430 -0.06387
			CHANNELS 3 Zrotation Yrotation Xrotation
			JOINT Chest2
			{
				OFFSET -0.00388 1.74651 0.09536
				CHANNELS 3 Zrotation Yrotation Xrotation
				JOINT lowerneck
				{
					OFFSET 0 0 0
					CHANNELS 3 Zrotation Yrotation Xrotation
					JOINT Neck
					{
						OFFSET 0.04111 1.46174 0.14397
						CHANNELS 3 Zrotation Yrotation Xrotation
						JOINT Head
						{
							OFFSET 0.00502 1.44580 -0.31711
							CHANNELS 3 Zrotation Yrotation Xrotation
							End Site
							{
								OFFSET -0.00395 1.49251 -0.12327
							}
						}
					}
				}
				JOINT LeftCollar
				{
					OFFSET 0 0 0
					CHANNELS 3 Zrotation Yrotation Xrotation
					JOINT LeftShoulder
					{
						OFFSET 2.70917 1.34870 -0.15417
CHANNELS 3 Zrotation Xrotation Yrotation
						JOINT LeftElbow
						{
OFFSET 0 -4.466100 -0.000000
CHANNELS 3 Zrotation Xrotation Yrotation
							JOINT LeftWrist
							{
OFFSET 0 -3.414140 0.000000
CHANNELS 3 Zrotation Xrotation Yrotation
								JOINT lhand
								{
									OFFSET 0 0 0
CHANNELS 3 Zrotation Xrotation Yrotation
									JOINT LFingers
									{
OFFSET 0 -0.328300 0.000000
CHANNELS 3 Zrotation Xrotation Yrotation
										End Site
										{
OFFSET 0 -0.264680 0.000000
										}
									}
								}
								JOINT LThumb
								{
OFFSET 0 0.000000 0.000000
CHANNELS 3 Zrotation Xrotation Yrotation
									End Site
									{
OFFSET 0 -0.268720 0.268720
									}
								}
							}
						}
					}
				}
				JOINT RightCollar
				{
					OFFSET 0 0 0
					CHANNELS 3 Zrotation Yrotation Xrotation
					JOINT RightShoulder
					{
						OFFSET -3.06316 1.13725 -0.10883
CHANNELS 3 Zrotation Xrotation Yrotation
						JOINT RightElbow
						{
OFFSET 0 -4.404310 0.000000
CHANNELS 3 Zrotation Xrotation Yrotation
							JOINT RightWrist
							{
OFFSET 0 -3.046880 0.000000
CHANNELS 3 Zrotation Xrotation Yrotation
								JOINT rhand
								{
									OFFSET 0 0 0
CHANNELS 3 Zrotation Xrotation Yrotation
									JOINT RFingers
									{
OFFSET 0 -0.500490 0.000000
CHANNELS 3 Zrotation Xrotation Yrotation
										End Site
										{
OFFSET 0 -0.403510 0.000000
										}
									}
								}
								JOINT RThumb
								{
OFFSET 0 0.000000 0.000000
CHANNELS 3 Zrotation Xrotation Yrotation
									End Site
									{
OFFSET 0 -0.409670 0.409670
									}
								}
							}
						}
					}
				}
			}
		}
	}
}
MOTION
Frames: 4
Frame Time: 0.008333333333333333
25.446300 13.112100 -1.001700 -176.977000 -0.543600 -173.327000 0.000000 0.000000 0.000000 -16.227400 19.766300 -51.710000 16.895700 19.767400 80.889600 2.842700 -11.962300 -30.431700 0.077400 1.795100 4.939600 0.000000 0.000000 0.000000 22.080000 -28.578400 -53.594700 -16.591900 -19.719200 79.990300 -3.631500 5.066200 -35.042600 -0.188000 -2.792500 7.701600 1.902500 0.599300 5.111200 -0.229400 0.500200 -8.059100 -1.345900 -0.143000 -11.493400 -7.687000 -8.149300 -11.922700 7.140300 -11.629200 17.052000 2.295000 -5.596300 8.110800 -0.000000 -0.000000 0.000000 81.498900 -13.605000 -67.968700 129.487600 -53.200100 93.416100 50.130300 -22.750600 9.233800 0.000000 0.000000 0.000000 -7.125000 0.000000 0.000000 15.909300 16.085700 11.328600 -0.000000 -0.000000 0.000000 -71.312700 -9.323200 68.911800 -123.415700 -55.328800 -88.485000 -55.848900 -36.476200 -31.790600 0.000000 0.000000 0.000000 7.125000 0.000000 -0.000000 -12.832700 -16.836400 -16.340400
25.472938 13.020241 -1.036155 -176.819040 -1.078167 -173.251639 0.000000 0.000000 0.000000 -15.875479 19.584530 -52.305717 17.354170 19.831275 82.243147 2.977035 -11.755975 -31.151170 0.065272 1.602958 4.410481 0.000000 0.000000 0.000000 22.212869 -29.098923 -54.245293 -17.077416 -19.793880 81.426687 -3.708808 5.564976 -35.355820 -0.201786 -2.891394 7.976762 1.746306 0.617139 4.917689 -0.023176 0.519429 -8.069608 -1.037063 -0.109951 -11.388607 -7.580193 -8.156472 -12.116358 6.711080 -11.546279 17.170563 2.140547 -5.574003 8.144720 0.000000 0.000000 0.000000 81.109142 -14.099035 -67.756992 129.264401 -53.287862 93.237270 49.578864 -22.730260 9.358950 0.000000 0.000000 0.000000 -7.125000 0.000000 0.000000 15.524752 16.041388 11.048148 0.000000 0.000000 0.000000 -71.658857 -9.120414 68.533252 -123.683934 -55.245563 -88.705469 -55.371089 -35.894914 -31.704554 0.000000 0.000000 0.000000 7.125000 0.000000 0.000000 -12.618017 -16.432737 -15.997059
25.496291 12.946551 -1.066892 -176.703020 -1.374342 -173.137144 0.000000 0.000000 0.000000 -15.591452 19.533158 -52.801063 17.701420 19.872822 83.265763 3.039509 -12.188782 -31.496765 0.108860 2.127387 5.857757 0.000000 0.000000 0.000000 22.289441 -29.472441 -54.845728 -17.500372 -19.849543 82.673814 -3.766369 6.333698 -35.536038 -0.246118 -3.191819 8.813198 1.557748 0.663770 4.788381 0.160041 0.562088 -8.170408 -0.737901 -0.071453 -11.426107 -7.378406 -8.011555 -12.187998 6.202791 -11.275682 17.328156 1.973620 -5.471576 8.145838 0.000000 0.000000 0.000000 80.839617 -14.253605 -67.732209 129.266135 -53.287198 93.238626 49.699598 -22.645218 9.403226 0.000000 0.000000 0.000000 -7.125000 0.000000 0.000000 15.591452 15.947791 11.132320 0.000000 0.000000 0.000000 -71.883693 -9.066504 68.323064 -123.876138 -55.185329 -88.863363 -55.098660 -35.905064 -31.625992 0.000000 0.000000 0.000000 7.125000 0.000000 0.000000 -12.505485 -16.170696 -15.810297
25.507713 12.899128 -1.098749 -176.649616 -1.464471 -172.994401 0.000000 0.000000 0.000000 -15.445183 19.438510 -53.075054 17.930605 19.896991 83.939625 3.094241 -12.471181 -31.796308 0.152644 2.517267 6.937558 0.000000 0.000000 0.000000 22.318925 -29.747489 -55.280236 -17.779423 -19.881320 83.495028 -3.798233 6.842332 -35.630862 -0.273438 -3.363498 9.292321 1.373524 0.816624 4.466580 0.308988 0.747222 -8.196374 -0.497653 0.038133 -11.258285 -7.387400 -7.935690 -12.120016 5.944371 -11.123768 17.415502 1.911815 -5.423157 8.136649 0.000000 0.000000 0.000000 80.628170 -14.438124 -67.593229 129.538605 -53.179904 93.456945 49.181971 -22.681378 9.305051 0.000000 0.000000 0.000000 -7.125000 0.000000 0.000000 15.282241 16.214765 10.802247 0.000000 0.000000 0.000000 -72.045008 -8.944360 67.830171 -123.899898 -55.177849 -88.882867 -54.590739 -35.249384 -31.582526 0.000000 0.000000 0.000000 7.125000 0.000000 0.000000 -12.259763 -15.804759 -15.434355
